<?xml version="1.0" encoding="utf-8" ?><svg xmlns="http://www.w3.org/2000/svg" xmlns:xlink="http://www.w3.org/1999/xlink" width="48px" height="48px" fill="#000000" viewBox="0 0 1024 1024"><path d="M211.415 96.72C259.498 96.14 308.51 96.5941 356.648 96.5905L628.819 96.5886L750.071 96.5622L784.917 96.5593C797.314 96.566 809.823 96.382 822.087 98.4148C844.673 102.37 865.598 112.875 882.262 128.624C904.259 149.349 917.12 177.963 918.016 208.171C918.325 223.032 918.016 238.909 918.003 253.835L917.999 339.359L918.012 606.334L918.028 731.494L918.026 766.962C918.024 776.848 918.397 786.605 916.861 796.377C913.243 819.742 902.507 841.421 886.118 858.461C863.029 882.245 835.179 893.806 802.267 894.163C755.792 895.188 706.163 894.362 659.47 894.359L394.84 894.374L261.679 894.322L222.718 894.28C213.358 894.251 202.114 894.467 193.008 893.113C170.761 889.676 150.025 879.745 133.402 864.566C110.413 843.513 96.9211 813.749 96.1707 782.731C95.838 768.979 96.1467 754.343 96.1605 740.485L96.1819 658.92L96.1539 405.149L96.1659 268.893L96.1208 229.045C96.108 216.284 95.6323 205.642 97.6581 192.935C101.239 170.456 111.525 149.583 127.17 133.049C150.153 108.577 178.301 97.7417 211.415 96.72ZM816.903 861.832C840.488 857.346 859.968 845.986 873.694 825.912C881.749 814.049 886.657 800.333 887.956 786.052C888.854 775.674 888.343 758.281 888.329 747.382L888.303 678.075L888.282 453.924L888.291 282.463L888.273 236.248C888.269 223.171 888.819 208.948 886.386 196.269C879.85 162.204 848.265 131.882 813.286 129.136C800.884 128.163 785.611 128.798 772.861 128.802L697.62 128.827L460.089 128.825L281.655 128.833L227.962 128.812C221.729 128.812 205.887 128.471 200.092 129.168C155.08 135.754 125.985 170.282 126.229 215.904C126.278 225.187 126.175 234.737 126.172 244.05L126.173 311.37L126.198 528.761L126.217 707.365L126.209 757.313C126.198 768.06 125.797 782.507 127.356 792.798C130.767 814.316 142.449 833.65 159.911 846.678C186.554 866.172 212.075 863.024 242.953 862.975L313.295 862.944L542.664 862.941L725.541 862.956L779.29 862.986C791.37 862.994 805.096 863.528 816.903 861.832Z"/><path d="M703.344 402.657C701.577 387.727 700.925 381.069 708.311 366.971C719.145 346.295 748.372 335.89 769.319 347.729C770.604 350.259 770.82 349.853 773.135 351.416C783.588 358.472 791.184 369.134 794.397 381.345C795.483 385.473 792.033 397.449 795.258 401.812C787.646 423.999 772.461 437.29 748.421 437.328C744.987 442.716 730.871 458.429 726.105 463.932L686.499 510.086L630.908 574.95C623.577 583.505 609.448 600.924 601.919 608.204L602.44 613.517C604.937 638.06 584.985 662.698 560.41 664.975C546.838 666.232 535.382 663.812 524.846 654.839C514.447 645.982 506.716 633.893 507.038 619.844C494.879 609.831 481.151 599.871 468.606 590.244C452.582 577.695 436.489 565.235 420.327 552.864C418.001 553.033 416.448 553.22 414.105 552.978C411.41 553.825 399.362 571.966 396.956 575.35L375.13 605.67L306.591 700.218C302.776 705.457 283.432 732.883 280.571 735.141C306.444 734.483 334.481 734.962 360.509 734.963L506.358 734.961L692.936 734.959C706.154 734.957 795.298 734.303 798.322 735.837C803.316 741.87 810.873 742.155 814.851 752.846C817.584 760.191 814.459 767.841 817.05 773.107C814.967 780.397 811.94 782.227 806.631 787.478C802.401 791.663 796.034 793.702 790.095 793.889C778.976 794.241 767.501 794.085 756.338 794.073L695.704 794.039L503.865 794.043L317.062 794.061L256.676 794.074C245.816 794.073 234.604 794.234 223.766 793.829C216.372 793.552 208.039 788.886 203.235 783.199C199.295 778.513 196.859 772.749 196.245 766.658C195.736 761.126 195.999 751.839 196.003 746.061L196.046 709.024L196.047 591.521L196.012 461.465L196.009 420.221C196.011 403.943 193.389 385.356 207.715 374.214C224.921 360.83 253.273 372.486 254.74 394.793C255.149 401.015 254.996 407.057 254.995 413.209L254.975 444.501L254.971 545.414L254.984 630.409C254.991 640.552 255.596 665.293 254.489 674.321L254.387 675.116C256.673 670.448 260.48 665.64 263.514 661.303C271.009 650.59 279.177 640.213 286.761 629.553C302.859 606.905 319.08 584.346 335.424 561.876C342.605 551.773 349.87 541.73 357.219 531.749C359.649 528.457 362.517 524.103 364.967 521.084C359.33 500.708 364.152 481.78 380.661 468.373C388.537 461.977 399.084 458.842 409.109 458.93C421.646 458.998 433.618 464.155 442.279 473.219C452.445 483.741 455.136 492.751 454.948 506.805C461.174 510.898 471.332 519.459 477.588 524.345L518.627 556.196C523.56 560.06 533.678 568.713 538.49 571.703C547.478 569.71 549.798 569.896 558.866 570.017C563.857 563.233 573.218 553.004 578.95 546.399L618.653 500.613L674.132 436.076C682.568 426.297 694.597 411.386 703.344 402.657Z"/><path d="M224.185 194.192C226.618 194.351 230.819 194.834 232.836 196.582C253.453 214.443 274.775 232.126 294.678 250.706C298.196 253.99 297.527 263.766 293.784 267.203C288.284 272.256 282 277.48 276.124 282.59L250.423 304.701C245.355 309.084 238.12 315.73 232.838 319.489C218.202 327.253 203.74 311.837 213.06 298.161C215.408 294.717 224.747 287.491 228.311 284.429C238.588 275.641 248.818 266.798 259 257.9C249.166 249.528 239.386 241.093 229.66 232.596C225.1 228.677 216.667 222.365 213.087 217.886C204.875 207.61 212.746 196.189 224.185 194.192Z"/><path d="M331.592 296.06C339.917 295.785 383.588 295.131 389.498 296.82C393.134 297.86 396.237 300.607 397.867 303.994C399.577 307.545 399.996 312.915 398.551 316.611C396.788 321.122 392.715 323.937 388.458 325.816C380.213 326.805 336.445 327.452 330.423 325.341C326.558 323.987 323.418 320.527 321.87 316.806C320.017 312.351 320.438 308.428 322.374 304.133C324.335 299.785 327.178 297.644 331.592 296.06Z"/><path d="M769.319 347.729C790.308 357.552 799.417 379.563 795.258 401.812C792.033 397.449 795.483 385.473 794.397 381.345C791.184 369.134 783.588 358.472 773.135 351.416C770.82 349.853 770.604 350.259 769.319 347.729Z"/><path d="M798.322 735.837C814.49 740.828 821.09 757.355 817.05 773.107C814.459 767.841 817.584 760.191 814.851 752.846C810.873 742.155 803.316 741.87 798.322 735.837Z"/></svg>